<svg id="Layer_1" enable-background="new 0 0 510.025 510.025" height="512" viewBox="0 0 510.025 510.025" width="512" xmlns="http://www.w3.org/2000/svg"><g><g><path d="m510.025 255.012c0 24.945-3.582 49.053-10.259 71.838s-23.37 41.859-35.752 61.512c-45.142 71.652-116.251 106.775-207.194 106.775-140.833 0-239.631-101.708-239.631-242.54 0-62.796 5.535-117.876 43.176-162.312 8.878-10.48 18.587-20.234 29.025-29.16 44.558-38.102 102.409-61.113 165.635-61.113 140.833 0 255 114.168 255 255z" fill="#f9e4dd"/></g><path d="m334.06 389.776c-140.833 0-255.025-116.542-255.025-257.374 0-25.043 3.624-48.861 10.357-71.271-10.438 8.926-20.151 18.675-29.029 29.156-37.639 44.435-60.363 99.555-60.363 162.351 0 140.833 114.192 257.374 255.025 257.374 90.943 0 170.767-47.607 215.909-119.26 11.955-18.975 21.468-39.641 28.121-61.551-44.473 37.779-102.07 60.575-164.995 60.575z" fill="#ffd0be"/><g><g><path d="m436.646 474.042c-39.029 39.029-102.598 12.142-102.598 12.142s-21.857-60.269 17.171-99.298c10.849-10.849 18.48-22.044 32.777-26.119 37.137-10.585 77.511-3.199 77.511-3.199s14.167 77.445-24.861 116.474z" fill="#489160"/></g><g><path d="m402.525 474.995c-23.322.757-42.331-18.557-41.534-41.878.792-23.178 5.813-51.847 23.006-72.345-14.297 4.075-28.115 10.809-38.964 21.658-39.029 39.028-24.862 116.473-24.862 116.473s77.445 14.167 116.473-24.862c1.493-1.493 2.899-3.048 4.24-4.646-13.014 3.71-26.426 5.212-38.359 5.6z" fill="#147d73"/></g><path d="m262.572 221.419c-6.075 0-11 4.925-11 11v276.844c0 .238.021.472.036.706 1.139.015 2.275.043 3.417.043 6.237 0 12.418-.235 18.543-.675 0-.025.004-.049.004-.074v-276.844c0-6.075-4.925-11-11-11z" fill="#8ecb51"/><g><path d="m176.712 331.499c29.11 29.11 34.326 75.474 33.87 107.756-.003.214-.006.428-.01.641-.348 21.042-18.694 37.165-39.633 35.051-28.895-2.917-68.859-12.259-96.693-40.094-31.624-31.624-39.758-79.284-41.601-108.464-.936-14.811 10.413-27.559 25.231-28.376.155-.009.31-.017.466-.025 31.909-1.704 85.884 1.025 118.37 33.511z" fill="#489160"/></g><g><path d="m92.209 405.744c-29.112-29.112-34.324-75.474-33.867-107.756-15.572.832-25.889 2.719-25.889 2.719s-17.547 95.92 30.792 144.259 144.259 30.792 144.259 30.792 2.773-15.183 3.075-36.504c-31.908 1.705-85.884-1.024-118.37-33.51z" fill="#147d73"/></g><g><g><g><g><g><path d="m258.035 215.485s-69.963-89.083-23.869-154.939l23.869-39.384 23.869 39.384c43.622 65.856-23.869 154.939-23.869 154.939z" fill="#ffc305"/></g></g></g></g><g><path d="m283.065 159.749s-45.99-58.565-38.823-115.828l-10.077 16.626c-46.094 65.856 23.869 154.939 23.869 154.939s22.718-29.992 33.273-68.034c-4.81 7.762-8.242 12.297-8.242 12.297z" fill="#ffa50a"/></g><g><g><g><g><path d="m253.359 216.46s-82.194-45.11-93.203-111.299l-4.507-31.191.549-25.798 40.363 22.173c70.705 35.222 56.798 146.115 56.798 146.115z" fill="#ffa50a"/></g></g></g></g><g><path d="m251.85 158.973c-.306 4.807-.654 7.586-.654 7.586s-79.242-31.796-95.548-92.589l-.431 20.244c-6.991 80.08 98.141 122.246 98.141 122.246s3.304-26.377-1.508-57.487z" fill="#f77e00"/></g><g><g><g><g><path d="m249.796 219.643s-84.144-.75-135.817-58.832l-20.319-31.108 31.313-8.146 2.577-.055c78.843-4.849 122.246 98.141 122.246 98.141z" fill="#ffc305"/></g></g></g></g><g><path d="m143.099 154.554-18.126-32.997-43.465.925 22.173 40.363c33.986 72.847 146.115 56.798 146.115 56.798s-1.175-2.782-3.474-7.391c-35.435-2.562-83.069-14.499-103.223-57.698z" fill="#ffa50a"/></g><g><g><g><g><path d="m248.302 224.18s-78.658 65.456-144.514 19.362l-33.027-22.123 25.101-17.51c14.506-9.608 27.64-17.424 43.199-18.159 55.08-2.603 109.241 38.43 109.241 38.43z" fill="#ffa50a"/></g></g></g></g><g><path d="m139.225 234.043-39.384-23.869 39.384-23.869c-.086-.286-.077-.255-.163-.542-15.559.735-31.192 4.94-45.698 14.549l-39.384 23.868 39.384 23.869c37.209 26.044 81.83 15.036 113.611.533-22.465 3.16-46.335.45-67.75-14.539z" fill="#f77e00"/></g><g><g><g><g><path d="m249.277 228.857s-38.72 94.698-118.8 87.707h-32.854l14.532-27.223c10.894-21.868 20.033-39.328 39.884-47.923 44.333-19.196 97.238-12.561 97.238-12.561z" fill="#ffc305"/></g></g></g></g><g><path d="m172.478 289.005-46.042-.979 22.173-40.363c1.075-2.158 2.223-4.235 3.434-6.239-19.852 8.595-37.987 22.363-48.881 44.232l-22.173 40.363 46.042.979c40.147 3.505 70.763-21.172 91.316-46.653-13.553 6.556-28.852 10.145-45.869 8.66z" fill="#ffa50a"/></g><g><g><g><g><path d="m252.46 232.419s17.092 103.522-55.754 137.508l-31.054 12.306v-33.884c-1.97-32.036 2.531-51.905 22.025-71.704 28.484-28.929 64.783-44.226 64.783-44.226z" fill="#ffa50a"/></g></g></g></g><g><path d="m227.487 322.841-40.363 22.173-.979-46.042c-.479-7.793.109-15.233 1.533-22.326-19.495 19.8-35.329 45.984-33.358 78.02l.979 46.042 40.363-22.173c30.21-14.094 45.123-41.627 52.241-69.029-5.879 5.179-12.637 9.705-20.416 13.335z" fill="#f77e00"/></g><g><g><g><g><path d="m258.035 233.913s-60.592 86.599-14.498 152.455l17.029 30.678 20.955-30.678c43.622-65.856-23.486-152.455-23.486-152.455z" fill="#ffc305"/></g></g></g></g><g><path d="m279.088 381.539-23.869-39.384c-19.975-28.538-18.15-61.434-9.674-89.557-17.71 29.645-44.493 88.943-11.379 136.254l23.869 39.384 23.869-39.384c7.175-10.832 11.329-22.293 13.286-33.881z" fill="#ffa50a"/></g><g><g><g><g><path d="m262.572 232.419s-13.649 101.321 59.197 135.306l34.349 20.7 4.595-33.76c4.849-78.843-98.141-122.246-98.141-122.246z" fill="#ffa50a"/></g></g></g></g><g><path d="m342.443 342.215c-41.107-19.178-53.905-63.238-57.255-97.993-13.101-7.79-22.615-11.804-22.615-11.804s-16.049 112.13 56.798 146.115l40.363 22.173.979-46.042c.049-.793.069-1.576.096-2.361z" fill="#f77e00"/></g><g><g><g><g><path d="m265.755 228.857s37.586 94.698 117.666 87.707l40.737-1.682-5.905-17.607-6.383-11.619c-35.222-70.706-146.115-56.799-146.115-56.799z" fill="#ffc305"/></g></g></g></g><g><path d="m401.993 297.62c-52.604 4.592-88.847-39.197-107.525-69.786-17.007-.442-28.713 1.023-28.713 1.023s42.166 105.132 122.246 98.141l46.042-.979-15.79-28.744z" fill="#ffa50a"/></g><g><g><g><g><path d="m266.73 224.18s31.792 13.487 71.431 23.765c26.715 6.927 56.993 18.662 83.508.104l39.384-23.869-39.384-23.869c-65.856-43.621-154.939 23.869-154.939 23.869z" fill="#ffa50a"/></g></g></g></g><g><path d="m319.215 206.978s13.302-10.073 33.417-19.92c-46.078 6.959-85.902 37.123-85.902 37.123s89.083 69.964 154.939 23.869l2.489-1.509c-53.565.776-104.943-39.563-104.943-39.563z" fill="#f77e00"/></g><g><g><g><g><path d="m265.236 219.643s51.186 1.379 95.643-18.376c19.485-8.658 40.116-16.223 50.473-38.422l22.173-40.363-46.042-.979c-78.844-4.85-122.247 98.14-122.247 98.14z" fill="#ffc305"/></g></g></g></g><g><path d="m301.896 180.719s7.548-17.897 22.053-38.417c-38.284 28.871-58.714 77.341-58.714 77.341s111.559 15.959 145.85-56.259c-45.893 26.391-109.189 17.335-109.189 17.335z" fill="#ffa50a"/></g><g><g><g><g><path d="m261.674 216.46s43.351-22.003 72.374-58.79c12.157-15.409 25.195-30.967 26.035-52.51.139-3.566.057-7.215-.269-10.947l-.979-46.042-40.363 22.173c-9.654 4.809-17.73 11.029-24.48 18.185-12.111 12.839-10.404 34.524-15.422 50.646-12.668 40.7-16.896 77.285-16.896 77.285z" fill="#ffa50a"/></g></g></g></g><g><path d="m286.916 156.953-25.242 59.507s95.561-38.329 98.408-111.299c-29.177 34.14-73.166 51.792-73.166 51.792z" fill="#f77e00"/></g><g><path d="m294 88.538c-36.147 38.321-34.258 103.456-32.829 122.519 10.77-15.794 44.973-71.259 32.829-122.519z" fill="#ffc305"/></g><g><path d="m283.065 159.749s-6.957-8.861-15.037-23.055c-8.879 30.919-7.775 62.128-6.857 74.362 12.429-18.217 23.924-41.26 30.126-63.588-4.805 7.752-8.232 12.281-8.232 12.281z" fill="#ffa50a"/></g></g><g><path d="m334.048 224.978c0 9.193-1.621 18.008-4.593 26.174-10.691 29.378-35.816 38.188-68.89 38.188-42.267 0-68.703-22.374-68.703-64.641 0-25.53 1.624-47.862 20.839-61.766 12.597-9.115 28.079-14.487 44.816-14.487 42.266 0 76.531 34.265 76.531 76.532z" fill="#cd5014"/></g><g><path d="m218.245 225.007c-11.02-21.919-11.662-43.53-5.534-62.058-28.108 20.339-41.875 59.276-23.11 98.794 6.595 13.889 17.954 25.029 31.898 31.505 47.229 21.932 93.5-2.438 107.935-42.103.241-.663-.52-1.23-1.103-.833-37.932 25.794-91.401 11.859-110.086-25.305z" fill="#a03c19"/></g><g fill="#8ecb51"><path d="m252.45 506.677-128.323-122.78c-2.394-2.291-6.192-2.207-8.483.188-2.291 2.394-2.207 6.192.188 8.483l122.14 116.863c5.366.354 10.775.553 16.226.57-.21-1.225-.78-2.398-1.748-3.324z"/><path d="m386.597 423.993-80.998 80.995c7.675-1.544 15.221-3.442 22.629-5.659l66.853-66.851c2.344-2.343 2.344-6.142.001-8.485s-6.143-2.344-8.485 0z"/></g></g></g></svg>