<svg height="512pt" viewBox="-18 0 512 512.12667" width="512pt" xmlns="http://www.w3.org/2000/svg"><path d="m476.753906 300.265625c0 116.964844-106.726562 211.859375-238.347656 211.859375-131.617188 0-238.34375-94.894531-238.34375-211.859375-.0117188-22.144531 3.875-44.113281 11.476562-64.910156 3.679688-9.9375 5.964844-20.332031 6.789063-30.898438 8.5-115.257812 104.484375-204.4374998 220.054687-204.457031 115.574219-.0195312 211.585938 89.132812 220.125 204.386719.820313 10.5625 3.097657 20.960937 6.769532 30.898437 7.601562 20.820313 11.484375 42.816406 11.476562 64.980469zm0 0" fill="#f0c419"/><path d="m229.582031 150.195312c0 58.503907-47.429687 105.929688-105.933593 105.929688-58.503907 0-105.929688-47.425781-105.929688-105.929688 0-58.503906 47.425781-105.929687 105.929688-105.929687 58.503906 0 105.933593 47.425781 105.933593 105.929687zm0 0" fill="#e6e7e8"/><path d="m388.476562 141.367188c0 34.128906-27.664062 61.792968-61.792968 61.792968-34.125 0-61.792969-27.664062-61.792969-61.792968 0-34.125 27.667969-61.792969 61.792969-61.792969 34.128906 0 61.792968 27.667969 61.792968 61.792969zm0 0" fill="#e6e7e8"/><path d="m132.476562 123.710938c0 19.503906-15.808593 35.3125-35.308593 35.3125-19.503907 0-35.3125-15.808594-35.3125-35.3125 0-19.5 15.808593-35.308594 35.3125-35.308594 19.5 0 35.308593 15.808594 35.308593 35.308594zm0 0" fill="#2c2f38"/><path d="m361.996094 150.195312c0 14.625-11.859375 26.484376-26.484375 26.484376s-26.484375-11.859376-26.484375-26.484376 11.859375-26.484374 26.484375-26.484374 26.484375 11.859374 26.484375 26.484374zm0 0" fill="#2c2f38"/><path d="m344.339844 150.195312c0 4.875-3.953125 8.828126-8.828125 8.828126s-8.828125-3.953126-8.828125-8.828126 3.953125-8.828124 8.828125-8.828124 8.828125 3.953124 8.828125 8.828124zm0 0" fill="#e6e7e8"/><path d="m187.914062 334.78125-5.648437 27.628906c-.9375 4.589844-3.65625 8.621094-7.566406 11.203125-3.90625 2.582031-8.679688 3.507813-13.265625 2.570313l-17.304688-3.53125c-4.589844-.9375-8.617187-3.65625-11.199218-7.566406-2.585938-3.90625-3.507813-8.679688-2.570313-13.269532l3.972656-19.683594c17.679688 3.125 35.679688 4.015626 53.582031 2.648438zm0 0" fill="#fff"/><path d="m406.132812 238.472656v123.585938c0 9.75-7.90625 17.652344-17.65625 17.652344s-17.65625-7.902344-17.65625-17.652344v-35.3125c0-9.75-7.902343-17.652344-17.652343-17.652344s-17.65625 7.902344-17.65625 17.652344c0 1.238281-.089844 11.210937-.351563 12.359375-1.804687 8.890625-10.054687 14.964843-19.078125 14.054687-9.023437-.914062-15.890625-8.515625-15.878906-17.585937v-65.765625c26.394531-19.066406 53.933594-31.335938 105.929687-31.335938zm0 0" fill="#2fa8cc"/><path d="m172.324219 344.332031c-58.527344 0-119.171875-25.601562-122.773438-27.128906-4.410156-1.964844-6.421875-7.105469-4.519531-11.539063 1.902344-4.4375 7.011719-6.523437 11.476562-4.683593 1.183594.511719 119.773438 50.492187 176.773438 9.710937 13.734375-9.808594 25.058594-19.015625 36.003906-27.921875 37.976563-30.828125 65.34375-53.125 136.847656-53.125 4.875 0 8.828126 3.953125 8.828126 8.828125s-3.953126 8.828125-8.828126 8.828125c-65.199218 0-89.265624 19.578125-125.707031 49.210938-10.589843 8.652343-22.703125 18.460937-36.890625 28.59375-21.167968 13.636719-46.054687 20.355469-71.210937 19.226562zm0 0" fill="#802d40"/><path d="m105.996094 119.300781c0 7.3125-5.929688 13.238281-13.242188 13.238281s-13.242187-5.925781-13.242187-13.238281c0-7.316406 5.929687-13.242187 13.242187-13.242187s13.242188 5.925781 13.242188 13.242187zm0 0" fill="#e6e7e8"/></svg>